<mxfile host="drawio-plugin" modified="2022-03-08T12:22:07.009Z" agent="5.0 (X11; Linux x86_64) AppleWebKit/537.36 (KHTML, like Gecko) Chrome/89.0.4389.114 Safari/537.36" version="15.5.4" etag="pi3Y2VchjNKNbNqy2-CP" type="embed"><diagram id="Vcoplo1Yw9rQp9fdqsMJ" name="Page-1"><mxGraphModel dx="618" dy="492" grid="1" gridSize="10" guides="1" tooltips="1" connect="1" arrows="1" fold="1" page="1" pageScale="1" pageWidth="827" pageHeight="1169" math="0" shadow="0"><root><mxCell id="0"/><mxCell id="1" parent="0"/><mxCell id="3" value="" style="ellipse;html=1;shape=startState;fillColor=#000000;strokeColor=#ff0000;" vertex="1" parent="1"><mxGeometry x="110" y="25" width="30" height="30" as="geometry"/></mxCell><mxCell id="4" value="" style="edgeStyle=orthogonalEdgeStyle;html=1;verticalAlign=bottom;endArrow=open;endSize=8;strokeColor=#ff0000;rounded=0;" edge="1" source="3" parent="1"><mxGeometry relative="1" as="geometry"><mxPoint x="230" y="40" as="targetPoint"/></mxGeometry></mxCell><mxCell id="13" style="edgeStyle=orthogonalEdgeStyle;rounded=0;orthogonalLoop=1;jettySize=auto;html=1;entryX=0;entryY=0.5;entryDx=0;entryDy=0;" edge="1" parent="1" target="7"><mxGeometry relative="1" as="geometry"><mxPoint x="230" y="40" as="sourcePoint"/></mxGeometry></mxCell><mxCell id="14" style="edgeStyle=orthogonalEdgeStyle;rounded=0;orthogonalLoop=1;jettySize=auto;html=1;entryX=0;entryY=0.5;entryDx=0;entryDy=0;" edge="1" parent="1" target="12"><mxGeometry relative="1" as="geometry"><mxPoint x="230" y="40" as="sourcePoint"/></mxGeometry></mxCell><mxCell id="19" style="edgeStyle=orthogonalEdgeStyle;rounded=0;orthogonalLoop=1;jettySize=auto;html=1;" edge="1" parent="1" target="15"><mxGeometry relative="1" as="geometry"><mxPoint x="230" y="40" as="sourcePoint"/></mxGeometry></mxCell><mxCell id="18" style="edgeStyle=orthogonalEdgeStyle;rounded=0;orthogonalLoop=1;jettySize=auto;html=1;entryX=0;entryY=0.5;entryDx=0;entryDy=0;" edge="1" parent="1" source="7" target="15"><mxGeometry relative="1" as="geometry"/></mxCell><mxCell id="7" value="pathdef" style="rounded=0;whiteSpace=wrap;html=1;" vertex="1" parent="1"><mxGeometry x="290" y="90" width="90" height="40" as="geometry"/></mxCell><mxCell id="8" value="program" style="rounded=0;whiteSpace=wrap;html=1;" vertex="1" parent="1"><mxGeometry x="490" y="180" width="90" height="40" as="geometry"/></mxCell><mxCell id="9" value="program" style="rounded=0;whiteSpace=wrap;html=1;" vertex="1" parent="1"><mxGeometry x="500" y="190" width="90" height="40" as="geometry"/></mxCell><mxCell id="10" value="program" style="rounded=0;whiteSpace=wrap;html=1;" vertex="1" parent="1"><mxGeometry x="510" y="200" width="90" height="40" as="geometry"/></mxCell><mxCell id="20" style="edgeStyle=orthogonalEdgeStyle;rounded=0;orthogonalLoop=1;jettySize=auto;html=1;entryX=0;entryY=0.5;entryDx=0;entryDy=0;" edge="1" parent="1" source="12" target="15"><mxGeometry relative="1" as="geometry"/></mxCell><mxCell id="12" value="calcdef" style="rounded=0;whiteSpace=wrap;html=1;" vertex="1" parent="1"><mxGeometry x="290" y="150" width="90" height="40" as="geometry"/></mxCell><mxCell id="22" style="edgeStyle=orthogonalEdgeStyle;rounded=0;orthogonalLoop=1;jettySize=auto;html=1;entryX=0;entryY=0.5;entryDx=0;entryDy=0;" edge="1" parent="1" source="15" target="21"><mxGeometry relative="1" as="geometry"/></mxCell><mxCell id="15" value="begin" style="ellipse;whiteSpace=wrap;html=1;" vertex="1" parent="1"><mxGeometry x="460" y="15" width="80" height="50" as="geometry"/></mxCell><mxCell id="16" value="begin" style="ellipse;whiteSpace=wrap;html=1;" vertex="1" parent="1"><mxGeometry x="620" y="160" width="80" height="50" as="geometry"/></mxCell><mxCell id="17" value="begin" style="ellipse;whiteSpace=wrap;html=1;" vertex="1" parent="1"><mxGeometry x="630" y="220" width="80" height="50" as="geometry"/></mxCell><mxCell id="25" style="edgeStyle=orthogonalEdgeStyle;rounded=0;orthogonalLoop=1;jettySize=auto;html=1;" edge="1" parent="1" source="21" target="24"><mxGeometry relative="1" as="geometry"/></mxCell><mxCell id="21" value="statements" style="rounded=0;whiteSpace=wrap;html=1;" vertex="1" parent="1"><mxGeometry x="590" y="20" width="90" height="40" as="geometry"/></mxCell><mxCell id="24" value="end" style="ellipse;whiteSpace=wrap;html=1;" vertex="1" parent="1"><mxGeometry x="730" y="15" width="80" height="50" as="geometry"/></mxCell><mxCell id="26" value="" style="ellipse;html=1;shape=startState;fillColor=#000000;strokeColor=#ff0000;" vertex="1" parent="1"><mxGeometry x="20" y="350" width="30" height="30" as="geometry"/></mxCell><mxCell id="27" value="" style="edgeStyle=orthogonalEdgeStyle;html=1;verticalAlign=bottom;endArrow=open;endSize=8;strokeColor=#ff0000;rounded=0;" edge="1" source="26" parent="1"><mxGeometry relative="1" as="geometry"><mxPoint x="35" y="440" as="targetPoint"/></mxGeometry></mxCell></root></mxGraphModel></diagram></mxfile>